<?xml version="1.0" standalone="no"?>
<!DOCTYPE svg PUBLIC "-//W3C//DTD SVG 20010904//EN"
 "http://www.w3.org/TR/2001/REC-SVG-20010904/DTD/svg10.dtd">
<svg version="1.0" xmlns="http://www.w3.org/2000/svg"
 width="168.000000pt" height="168.000000pt" viewBox="0 0 168.000000 168.000000"
 preserveAspectRatio="xMidYMid meet">
<metadata>
Created by potrace 1.11, written by Peter Selinger 2001-2013
</metadata>
<g transform="translate(0.000000,168.000000) scale(0.100000,-0.100000)"
fill="#000000" stroke="none">
<path d="M752 1623 c-5 -10 -8 -36 -6 -58 2 -22 6 -65 9 -95 3 -30 8 -91 12
-135 5 -71 14 -94 34 -95 13 0 17 67 16 230 l-2 165 -27 3 c-18 2 -30 -3 -36
-15z"/>
<path d="M892 1627 c-5 -7 -13 -46 -16 -87 -13 -142 -16 -175 -21 -220 -4 -41
-2 -46 18 -48 21 -1 24 9 56 169 22 110 31 173 24 180 -15 15 -51 19 -61 6z"/>
<path d="M624 1616 c-17 -13 -17 -19 -6 -67 6 -30 14 -61 16 -69 2 -8 14 -54
26 -101 25 -99 28 -104 57 -113 17 -5 22 -4 19 6 -3 7 -7 31 -10 53 -8 69 -37
249 -42 268 -8 27 -38 39 -60 23z"/>
<path d="M1023 1598 c-4 -7 -8 -17 -9 -23 -1 -9 -66 -248 -80 -297 -4 -14 1
-18 19 -18 21 0 28 10 50 68 14 37 41 108 60 157 32 82 34 91 20 108 -19 20
-48 22 -60 5z"/>
<path d="M481 1562 c-7 -14 0 -39 30 -103 61 -131 63 -134 89 -131 13 1 25 4
27 6 3 3 -72 220 -82 236 -10 17 -54 11 -64 -8z"/>
<path d="M1152 1548 c-7 -7 -12 -15 -12 -19 0 -4 -28 -65 -61 -134 -56 -115
-64 -143 -60 -205 1 -19 201 313 201 334 0 9 -12 21 -26 26 -31 12 -28 12 -42
-2z"/>
<path d="M366 1504 c-9 -8 -16 -19 -16 -23 0 -4 27 -47 61 -95 56 -81 63 -87
88 -81 14 4 27 8 29 9 4 4 -88 168 -106 189 -19 21 -36 22 -56 1z"/>
<path d="M1287 1481 c-9 -3 -68 -78 -131 -166 -95 -135 -111 -163 -102 -178
10 -17 12 -17 28 3 14 17 120 138 153 174 47 51 105 125 105 133 0 18 -35 41
-53 34z"/>
<path d="M267 1428 c-34 -19 -19 -52 63 -133 44 -44 80 -74 80 -68 0 6 7 18
15 26 13 14 7 24 -50 95 -71 86 -82 95 -108 80z"/>
<path d="M1227 1242 c-81 -82 -147 -155 -147 -165 0 -10 5 -17 12 -15 20 7
337 262 343 277 11 26 -5 51 -33 51 -22 0 -58 -30 -175 -148z"/>
<path d="M162 1314 c-16 -29 -2 -48 74 -99 41 -27 81 -54 89 -60 10 -6 20 -3
35 10 l21 19 -23 20 c-137 125 -176 146 -196 110z"/>
<path d="M1430 1258 c-139 -95 -306 -212 -314 -220 -6 -5 -6 -12 1 -19 11 -11
55 9 213 98 19 11 69 39 112 62 42 23 79 48 82 57 5 14 -26 54 -41 54 -5 0
-28 -15 -53 -32z"/>
<path d="M89 1193 c-5 -14 -6 -29 -3 -35 4 -5 48 -29 98 -53 l91 -43 17 21 c9
12 15 25 12 28 -8 14 -168 103 -187 104 -11 1 -22 -8 -28 -22z"/>
<path d="M1515 1155 c-100 -48 -285 -133 -312 -144 -33 -14 -44 -36 -20 -44
14 -4 374 118 394 135 15 12 8 48 -11 60 -15 10 -16 10 -51 -7z"/>
<path d="M42 1078 c-16 -16 -15 -43 1 -55 12 -9 203 -63 224 -63 5 0 10 12 9
27 -1 25 -9 31 -96 65 -105 41 -120 44 -138 26z"/>
<path d="M1545 1023 c-27 -7 -59 -15 -70 -17 -97 -22 -263 -70 -260 -76 4 -7
21 -6 80 2 12 2 19 -2 17 -10 -1 -8 6 -11 20 -8 24 5 141 24 193 32 17 2 39 6
50 8 11 3 25 5 32 5 26 2 26 64 0 74 -7 2 -34 -2 -62 -10z"/>
<path d="M15 944 c-8 -9 -15 -21 -15 -28 0 -31 28 -39 183 -51 37 -3 83 -8
102 -11 40 -6 43 1 15 34 -15 18 -41 28 -112 41 -161 32 -156 31 -173 15z"/>
<path d="M1537 894 c-2 -2 -131 -13 -216 -18 -22 -2 -56 -34 -46 -44 2 -3 83
-7 179 -9 160 -3 176 -2 184 14 20 42 1 64 -54 62 -24 -2 -45 -4 -47 -5z"/>
<path d="M13 813 c-15 -5 -17 -41 -4 -61 6 -10 23 -12 62 -8 30 3 90 8 134 12
44 3 96 7 115 9 19 2 73 6 120 10 47 3 99 8 115 10 17 2 54 5 83 6 29 1 49 6
45 10 -6 6 -195 13 -273 9 -8 0 -98 2 -200 4 -102 3 -191 2 -197 -1z"/>
<path d="M1224 785 c-10 -7 -16 -16 -13 -19 5 -5 293 -65 380 -80 31 -5 49 10
49 40 0 30 -7 33 -77 39 -32 3 -74 7 -93 10 -19 2 -75 7 -125 11 -49 3 -93 8
-96 10 -3 2 -15 -3 -25 -11z"/>
<path d="M619 776 c-2 -2 -22 -6 -44 -9 -22 -3 -114 -18 -205 -32 -91 -14
-181 -28 -200 -31 -114 -17 -134 -22 -147 -40 -13 -18 -3 -48 19 -56 7 -3 103
19 213 49 110 29 209 55 220 57 49 11 208 56 213 61 6 6 -62 7 -69 1z"/>
<path d="M395 659 c-355 -121 -335 -113 -335 -144 0 -61 33 -50 510 172 19 9
57 26 84 38 27 12 45 24 40 27 -5 3 -139 -39 -299 -93z"/>
<path d="M1175 723 c-3 -9 -4 -17 -2 -19 8 -9 398 -154 412 -154 19 0 36 40
25 59 -4 8 -72 32 -151 53 -79 21 -174 47 -211 57 -59 17 -67 17 -73 4z"/>
<path d="M535 645 c-440 -241 -434 -237 -401 -273 18 -21 35 -23 57 -6 8 6 73
51 144 100 279 190 366 252 358 257 -4 2 -75 -33 -158 -78z"/>
<path d="M465 514 c-126 -102 -238 -194 -247 -205 -13 -16 -15 -25 -8 -40 23
-43 51 -23 273 196 182 181 233 236 215 235 -2 0 -106 -84 -233 -186z"/>
<path d="M1152 659 c2 -16 47 -48 175 -125 95 -56 180 -104 190 -106 27 -4 43
10 43 38 0 21 -10 30 -67 56 -36 16 -114 52 -172 80 -177 84 -173 83 -169 57z"/>
<path d="M700 663 c0 -5 -15 -24 -33 -43 -28 -31 -188 -213 -257 -294 -14 -16
-42 -48 -62 -70 -43 -47 -49 -82 -15 -95 13 -5 27 -5 35 2 7 5 65 85 130 176
64 91 140 199 169 240 53 74 61 91 43 91 -5 0 -10 -3 -10 -7z"/>
<path d="M576 384 l-160 -265 21 -21 c41 -40 41 -39 238 377 68 145 76 163 67
168 -4 3 -79 -114 -166 -259z"/>
<path d="M744 570 c-32 -71 -194 -496 -194 -509 0 -6 11 -17 25 -23 37 -17 49
0 79 117 15 55 33 123 41 150 54 190 76 278 73 293 -3 11 -11 2 -24 -28z"/>
<path d="M1160 591 c0 -48 60 -112 88 -94 28 17 22 27 -33 65 -30 20 -55 34
-55 29z"/>
<path d="M1289 473 c-10 -26 -7 -31 53 -85 79 -72 104 -86 126 -71 38 24 20
53 -76 119 l-92 65 -11 -28z"/>
<path d="M1152 476 l-22 -12 29 -34 c31 -38 41 -37 45 4 4 36 -22 58 -52 42z"/>
<path d="M746 348 c-27 -126 -47 -231 -53 -284 -6 -55 5 -68 46 -57 24 6 27
26 47 268 3 39 7 75 9 81 2 6 -5 23 -15 38 l-18 28 -16 -74z"/>
<path d="M1100 395 c-8 -22 -4 -36 28 -93 20 -37 49 -89 62 -115 29 -57 51
-72 80 -57 25 13 26 40 2 71 -10 13 -47 66 -82 117 -35 51 -67 95 -72 98 -4 3
-12 -7 -18 -21z"/>
<path d="M1246 376 c-19 -30 -19 -30 44 -109 45 -57 73 -70 98 -45 21 21 13
36 -56 109 l-68 71 -18 -26z"/>
<path d="M1044 295 c-15 -23 -14 -30 17 -122 17 -54 37 -101 43 -105 21 -15
47 -8 57 15 8 19 2 40 -41 130 -29 59 -54 107 -56 107 -2 0 -11 -11 -20 -25z"/>
<path d="M829 240 c-6 -84 -4 -208 3 -222 12 -24 55 -23 63 1 10 32 -3 145
-18 156 -7 5 -21 28 -30 50 -14 35 -16 37 -18 15z"/>
<path d="M985 198 c-4 -10 -14 -14 -27 -10 -19 5 -20 2 -14 -40 19 -127 20
-128 49 -128 45 0 50 20 27 106 -22 85 -27 94 -35 72z"/>
</g>
</svg>
